<svg
   xmlns="http://www.w3.org/2000/svg"
   width="425"
   height="100"
   viewBox="0 0 425 100">
  <path
     d="m 82.82026,100 0.079,-36.89363 9.3862,-9.37367 0,46.2673 z M 0.01366014,99.78957 c -0.023,-24.79954 -0.01,-74.60281 -0.01,-74.60281 0,0 30.11569986,30.22862 45.15259986,45.20353 3.5336,-3.32317 10.4453,-9.97085 10.4453,-9.97085 l 6.0462,6.53588 c 0,0 -11.4005,11.25695 -16.4915,16.26795 -11.6391,-11.60956 -23.1548,-23.69949 -34.7361,-35.25349 -0.2589,17.2536 0,51.81979 0,51.81979 l -10.41469986,0 z M 106.35676,76.04495 c 0,0 0.075,-34.06337 0,-50.42781 -12.2028,11.67328 -23.9047,23.99433 -36.0575,35.72555 -11.9709,-12.2025 -36.1689,-36.73813 -36.1689,-36.73813 l 0,17.27757 -10.1042,-10.92672 c 0,0 -0.048,-20.76044 0,-30.95541 15.4741,15.36582 46.2731,46.45008 46.2731,46.45008 l 46.0739,-46.39375 0,75.98862 z" />
  <g>
    <path
       d="m 164.50059,82.605584 0,-51.342902 18.35531,0 0,-6.40704 -43.8103,0 0,6.40704 18.26872,0 0,51.342902 7.18627,0 z" />
    <path
       d="M 240.04621,82.605584 224.46152,59.055383 c 7.87893,-0.692653 14.97862,-6.40704 14.97862,-16.796835 0,-10.649539 -7.5326,-17.402906 -18.09556,-17.402906 l -23.20387,0 0,57.749942 7.18627,0 0,-22.94413 11.51536,0 14.71887,22.94413 8.485,0 z m -19.56744,-29.264588 -15.15179,0 0,-22.078314 15.15179,0 c 6.83994,0 11.51535,4.502245 11.51535,10.995866 0,6.493622 -4.67541,11.082448 -11.51535,11.082448 z" />
    <path
       d="m 305.90448,82.605584 -23.29045,-57.749942 -8.91791,0 -23.20387,57.749942 8.22525,0 5.10832,-12.81408 28.74509,0 5.10832,12.81408 8.22525,0 z m -15.49811,-19.22112 -24.5026,0 12.29459,-31.082802 12.20801,31.082802 z" />
    <path
       d="m 338.92917,82.605584 c 17.92239,0 29.61091,-12.381172 29.61091,-28.83168 0,-16.363927 -11.68852,-28.918262 -29.61091,-28.918262 l -19.74061,0 0,57.749942 19.74061,0 z m 0,-6.40704 -12.55434,0 0,-44.935862 12.55434,0 c 14.28597,0 22.16489,10.043468 22.16489,22.511222 0,12.381172 -8.13867,22.42464 -22.16489,22.42464 z" />
    <path
       d="m 423.29799,82.605584 0,-6.40704 -30.64989,0 0,-19.913773 30.04382,0 0,-6.40704 -30.04382,0 0,-18.615049 30.64989,0 0,-6.40704 -37.83617,0 0,57.749942 37.83617,0 z" />
  </g>
</svg>
